<svg version="1.1" xmlns="http://www.w3.org/2000/svg" xmlns:xlink="http://www.w3.org/1999/xlink" x="0px" y="0px"
	 viewBox="0 0 40 40" xml:space="preserve">
<style type="text/css">
	path{fill:#66cbff;}
</style>
	<path d="M10.7,20c0,0.8-0.6,1.4-1.4,1.4H2c-0.8,0-1.4-0.6-1.4-1.4c0-0.8,0.6-1.4,1.4-1.4h7.2C10.1,18.6,10.7,19.2,10.7,20L10.7,20z
		 M10.7,20"/>
	<path d="M39.4,20c0,0.8-0.6,1.4-1.4,1.4h-7.2c-0.8,0-1.4-0.6-1.4-1.4c0-0.8,0.6-1.4,1.4-1.4H38C38.7,18.6,39.4,19.2,39.4,20
		L39.4,20z M39.4,20"/>
	<path d="M21.4,2v7.2c0,0.8-0.6,1.4-1.4,1.4c-0.8,0-1.4-0.6-1.4-1.4V2c0-0.8,0.6-1.4,1.4-1.4C20.8,0.6,21.4,1.3,21.4,2L21.4,2z
		 M21.4,2"/>
	<path d="M21.4,30.7V38c0,0.8-0.6,1.4-1.4,1.4c-0.8,0-1.4-0.6-1.4-1.4v-7.2c0-0.8,0.6-1.4,1.4-1.4C20.8,29.3,21.4,29.9,21.4,30.7
		L21.4,30.7z M21.4,30.7"/>
	<path d="M11.9,15.3c-0.3,0.5-0.7,0.7-1.2,0.7c-0.2,0-0.5-0.1-0.7-0.2l-6.3-3.6c-0.7-0.4-0.9-1.3-0.5-1.9c0.4-0.7,1.3-0.9,1.9-0.5
		l6.3,3.6C12.1,13.8,12.3,14.7,11.9,15.3L11.9,15.3z M11.9,15.3"/>
	<path d="M36.8,29.7c-0.3,0.5-0.7,0.7-1.2,0.7c-0.2,0-0.5-0.1-0.7-0.2l-6.3-3.6c-0.7-0.4-0.9-1.3-0.5-1.9c0.4-0.7,1.3-0.9,1.9-0.5
		l6.3,3.6C36.9,28.1,37.2,29,36.8,29.7L36.8,29.7z M36.8,29.7"/>
	<path d="M30.2,5.2l-3.6,6.3c-0.3,0.5-0.7,0.7-1.2,0.7c-0.2,0-0.5-0.1-0.7-0.2c-0.7-0.4-0.9-1.3-0.5-1.9l3.6-6.3
		c0.4-0.7,1.3-0.9,1.9-0.5C30.4,3.6,30.6,4.5,30.2,5.2L30.2,5.2z M30.2,5.2"/>
	<path d="M15.9,30l-3.6,6.3C12,36.7,11.5,37,11,37c-0.2,0-0.5-0.1-0.7-0.2c-0.7-0.4-0.9-1.3-0.5-1.9l3.6-6.3
		c0.4-0.7,1.3-0.9,1.9-0.5C16,28.4,16.3,29.3,15.9,30L15.9,30z M15.9,30"/>
	<path d="M15.4,11.9c-0.2,0.1-0.5,0.2-0.7,0.2c-0.5,0-1-0.3-1.2-0.7L9.8,5.2c-0.4-0.7-0.2-1.6,0.5-1.9c0.7-0.4,1.6-0.2,1.9,0.5
		l3.6,6.3C16.3,10.7,16,11.5,15.4,11.9L15.4,11.9z M15.4,11.9"/>
	<path d="M29.7,36.8C29.5,36.9,29.2,37,29,37c-0.5,0-1-0.3-1.2-0.7L24.1,30c-0.4-0.7-0.2-1.6,0.5-1.9c0.7-0.4,1.6-0.2,1.9,0.5
		l3.6,6.3C30.6,35.5,30.4,36.4,29.7,36.8L29.7,36.8z M29.7,36.8"/>
	<path d="M36.3,12.3L30,15.9c-0.2,0.1-0.5,0.2-0.7,0.2c-0.5,0-1-0.3-1.2-0.7c-0.4-0.7-0.2-1.6,0.5-1.9l6.3-3.6
		c0.7-0.4,1.6-0.2,1.9,0.5C37.2,11,36.9,11.9,36.3,12.3L36.3,12.3z M36.3,12.3"/>
	<path d="M11.4,26.6l-6.3,3.6c-0.2,0.1-0.5,0.2-0.7,0.2c-0.5,0-1-0.3-1.2-0.7c-0.4-0.7-0.2-1.6,0.5-1.9l6.3-3.6
		c0.7-0.4,1.6-0.2,1.9,0.5C12.3,25.3,12.1,26.2,11.4,26.6L11.4,26.6z M11.4,26.6"/>

</svg>
